<svg width="225.68" height="225.687" xmlns="http://www.w3.org/2000/svg">
 <g>
  <title>Layer 1</title>
  <g id="g13">
   <path id="path15" d="m225.679993,112.847c0,62.324005 -50.514999,112.839005 -112.843994,112.839005c-62.313999,0.000992 -112.835999,-50.514999 -112.835999,-112.839005c0,-62.321999 50.521999,-112.847 112.835999,-112.847c62.328995,0 112.843994,50.525002 112.843994,112.847z"/>
   <path fill="#ffffff" id="path17" d="m151.792007,112.847c0,21.511002 -17.439011,38.957993 -38.956009,38.957993c-21.514999,0 -38.955002,-17.445999 -38.955002,-38.957993c0,-21.516998 17.440002,-38.956001 38.955002,-38.956001c21.516998,0 38.956009,17.440002 38.956009,38.956001z"/>
   <path id="path119" d="m116.865997,112.847c0,2.226997 -1.802994,4.031998 -4.029999,4.031998c-2.219002,0 -4.028999,-1.805 -4.028999,-4.031998c0,-2.227997 1.809998,-4.030998 4.028999,-4.030998c2.227005,0 4.029999,1.804001 4.029999,4.030998z"/>
   <path fill="none" stroke="#ffffff" stroke-width="2.5007" stroke-linecap="round" stroke-linejoin="round" id="path23" d="m20.097,66.216003c10.823,-21.487003 28.895,-38.693003 51.003998,-48.415003"/>
   <path fill="none" stroke="#ffffff" stroke-width="2.5007" stroke-linecap="round" stroke-linejoin="round" id="path27" d="m207.882004,154.578995c-10.452011,23.771011 -29.559006,42.876999 -53.335007,53.32901"/>
   <path fill="none" stroke="#ffffff" stroke-width="2.5007" stroke-linecap="round" stroke-linejoin="round" id="path41" d="m31.278,68.092003c9.514999,-17.300003 24.375,-31.246002 42.348999,-39.614002"/>
   <path fill="none" stroke="#ffffff" stroke-width="2.5007" stroke-linecap="round" stroke-linejoin="round" id="path45" d="m197.292999,151.869995c-9.156006,19.784012 -25.052994,35.804001 -44.744995,45.110001"/>
   <path fill="none" stroke="#ffffff" stroke-width="2.5007" stroke-linecap="round" stroke-linejoin="round" id="path57" d="m188.860001,145.891998c-7.666,17.615997 -21.281998,32.054001 -38.311996,40.766998"/>
   <path fill="none" stroke="#ffffff" stroke-width="2.5007" stroke-linecap="round" stroke-linejoin="round" id="path61" d="m40.220001,72.872002c8.302998,-15.050003 21.152,-27.241001 36.688995,-34.730003"/>
   <path fill="none" stroke="#ffffff" stroke-width="2.5007" stroke-linecap="round" stroke-linejoin="round" id="path69" d="m176.434998,145.878998c-6.179993,11.878006 -15.591003,21.803009 -27.065002,28.621002"/>
   <path fill="none" stroke="#ffffff" stroke-width="2.5007" stroke-linecap="round" stroke-linejoin="round" id="path73" d="m50.691002,77.164001c6.824997,-11.859001 16.945,-21.582001 29.115997,-27.915001"/>
   <path fill="none" stroke="#ffffff" stroke-width="2.5007" stroke-linecap="round" stroke-linejoin="round" id="path85" d="m165.923996,141.229004c-4.955994,9.246994 -12.263,17.054993 -21.119003,22.623001"/>
   <path fill="none" stroke="#ffffff" stroke-width="2.5007" stroke-linecap="round" stroke-linejoin="round" id="path89" d="m62.042,80.556c5.489998,-8.619003 13.102997,-15.742996 22.109001,-20.631001"/>
   <path fill="none" stroke="#ffffff" stroke-width="2.5007" stroke-linecap="round" stroke-linejoin="round" id="path101" d="m156.897003,135.563004c-4.337006,8.399994 -11.005005,15.401001 -19.152008,20.141998"/>
   <path fill="none" stroke="#ffffff" stroke-width="2.5007" stroke-linecap="round" stroke-linejoin="round" id="path105" d="m69.973999,87.931999c5.229004,-8.973999 13.200005,-16.156998 22.760002,-20.405998"/>
  </g>
 </g>
</svg>